<?xml version="1.0" encoding="utf-8"?>
<!-- Generator: Adobe Illustrator 24.0.0, SVG Export Plug-In . SVG Version: 6.00 Build 0)  -->
<svg version="1.1" id="Layer_1" xmlns="http://www.w3.org/2000/svg" xmlns:xlink="http://www.w3.org/1999/xlink" x="0px" y="0px"
	 viewBox="0 0 288.5 77.5" style="enable-background:new 0 0 288.5 77.5;" xml:space="preserve">
<style type="text/css">
	.st0{fill:#FFFFFF;}
	.st1{fill:#1B60AA;}
	.st2{fill-rule:evenodd;clip-rule:evenodd;fill:#FFFFFF;}
</style>
<title>Combank logo</title>
<path class="st0" d="M6.6,0h281.9l0,0v77.5l0,0H6.6c-3.7,0-6.6-4.2-6.6-9.4c0,0,0,0,0,0V9.4C0,4.2,2.9,0,6.6,0C6.6,0,6.6,0,6.6,0z"
	/>
<path class="st1" d="M288.5,6.9H25.2c-4.8,0-8.8,4.3-9.9,9.8L6.3,60.6c-1.6,7.6,4.2,10.2,9.6,10.2h272.7V6.9z"/>
<path class="st2" d="M38.2,23.2c0.7,0.5,1.4,1.1,2.2,1.6c0.1,0.1,0.3,0.2,0.3,0.3c0,0.2,0,0.5,0,0.7v22.8h-2.5
	c-0.1-7.3,0-14.8,0-22.2C38.2,25.3,38.1,24.2,38.2,23.2C38.2,23.2,38.1,23.1,38.2,23.2z"/>
<path class="st2" d="M44.1,48.6h-2.5V25.8c0-0.2,0-0.5,0-0.7c0-0.1,0.2-0.2,0.3-0.2c0.7-0.5,1.5-1.2,2.2-1.6
	C44.1,31.7,44.1,40.1,44.1,48.6z"/>
<path class="st2" d="M31,45.3c-1.6-1.9-2.4-4.3-2.4-6.7c0-1.3,0.2-2.7,0.6-3.9c0.4-1.1,0.9-2.1,1.7-2.9c1.5-1.8,3.6-3,5.9-3.3
	c-1.7-0.3-3.5-0.4-5.3-0.2c-1.9,0.2-3.8,0.9-5.4,2c-3.3,2.2-5,6.2-4.2,10.1c0.3,1.5,0.9,2.8,1.8,4c0.9,1.1,1.9,2,3.2,2.7
	c3.1,1.5,6.5,2.1,9.9,1.6C34.5,48.2,32.5,47,31,45.3z M26.6,44.3c-1.3-1.7-2-3.8-2.1-6c-0.1-2.2,0.6-4.4,2-6.1
	c1.3-1.5,3.1-2.6,5.1-3l0,0c0,0-0.1,0-0.1,0.1c-1.5,0.8-2.9,1.9-3.9,3.3c-1.2,1.6-1.8,3.6-1.8,5.7c0,2,0.6,4,1.7,5.7
	c0.9,1.5,2.4,2.7,4.1,3.3C29.6,47.1,27.8,46,26.6,44.3z"/>
<path class="st2" d="M59.7,34.6c-0.6-1.3-1.4-2.5-2.5-3.5c-1.1-1-2.4-1.7-3.8-2.2c-1.7-0.6-3.5-0.8-5.3-0.8c-0.9,0-1.8,0.1-2.6,0.3
	c3.5,0.5,6.4,2.9,7.6,6.2c0.5,1.3,0.7,2.6,0.6,3.9c0,2.5-0.9,4.8-2.4,6.7c-1.5,1.8-3.5,3-5.8,3.4c6.1,0.5,10.8-1.1,13.3-4.6
	c0.9-1.3,1.5-2.8,1.7-4.3C60.7,38,60.4,36.2,59.7,34.6z M57.1,41.7c-0.3,0.9-0.8,1.8-1.4,2.6c-1.2,1.7-3,2.8-5,3.1
	c1.7-0.6,3.1-1.8,4.1-3.3c1.1-1.7,1.7-3.7,1.7-5.7c0.1-2-0.6-4-1.8-5.7c-0.8-1.1-1.8-2-2.9-2.7c-0.4-0.3-0.8-0.5-1.2-0.7l0,0
	c2,0.4,3.8,1.4,5.1,2.9c1.4,1.7,2.1,3.9,2,6.1C57.7,39.5,57.5,40.7,57.1,41.7L57.1,41.7z"/>
<path class="st0" d="M79.9,30.9c-0.8-0.2-1.6-0.3-2.4-0.3c-0.9,0-1.8,0.2-2.6,0.4c-1,0.3-2,0.8-2.8,1.4c-1,0.7-1.8,1.6-2.4,2.7
	c-0.7,1.3-1.1,2.6-1.1,4.1c0,1.2,0.2,2.5,0.7,3.6c0.5,1.1,1.1,2.1,2,2.9c0.8,0.8,1.8,1.5,2.9,1.9c2.5,1.1,5.4,0.9,7.8-0.5l0.1-0.1
	v-3l-0.4,0.3c-1.2,1-2.7,1.6-4.3,1.6c-1.7,0-3.3-0.7-4.4-1.9c-0.6-0.6-1.1-1.4-1.4-2.2c-0.3-0.9-0.5-1.8-0.5-2.7
	c0-0.8,0.2-1.6,0.5-2.3c0.3-0.7,0.8-1.4,1.4-2c0.6-0.6,1.3-1.1,2-1.4c0.8-0.3,1.6-0.5,2.4-0.5c0.8,0,1.5,0.1,2.2,0.4
	c0.7,0.3,1.4,0.7,2,1.2l0.4,0.3v-3l-0.1-0.1C81.2,31.4,80.6,31.1,79.9,30.9z"/>
<path class="st0" d="M98,33.2c-0.8-0.8-1.8-1.5-2.9-1.9c-1.1-0.5-2.3-0.7-3.4-0.7c-1.2,0-2.3,0.2-3.4,0.7c-1.1,0.5-2,1.1-2.8,1.9
	c-1.7,1.7-2.6,3.9-2.6,6.3c0,1.2,0.2,2.3,0.7,3.4c0.5,1.1,1.1,2,1.9,2.9c2.6,2.5,6.4,3.3,9.7,1.9c1.1-0.4,2-1.1,2.9-1.9
	c0.8-0.8,1.5-1.8,1.9-2.8c0.9-2.2,0.9-4.7,0-6.9C99.5,35,98.9,34,98,33.2z M91.7,46c-1.1,0-2.2-0.3-3.2-0.9c-2.8-1.7-4-5.1-2.7-8.2
	c0.3-0.8,0.8-1.5,1.3-2.1c0.6-0.6,1.3-1.1,2.1-1.4c0.8-0.3,1.6-0.5,2.5-0.5c1.1,0,2.2,0.3,3.2,0.9c2,1.2,3.2,3.3,3.2,5.7
	c0,0.9-0.2,1.7-0.5,2.5c-0.6,1.6-1.9,2.8-3.4,3.5C93.4,45.8,92.6,46,91.7,46z"/>
<polygon class="st0" points="116.2,30.4 116,29.7 115.8,30.4 110.2,43 104.8,30.4 104.5,29.7 104.3,30.4 100.9,47.7 100.9,48 
	101.2,48 103.3,48 103.4,48 103.5,47.8 105.3,37.4 110,48.2 110.2,48.7 110.4,48.2 115.2,37.5 117,47.8 117,48 117.2,48 119.4,48 
	119.6,48 119.6,47.7 "/>
<polygon class="st0" points="136,30.4 135.9,29.7 135.6,30.4 130.1,43 124.6,30.4 124.3,29.7 124.2,30.4 120.8,47.7 120.8,48 
	121,48 123.1,48 123.3,48 123.3,47.8 125.2,37.4 129.9,48.2 130.1,48.7 130.3,48.2 135,37.5 136.9,47.8 136.9,48 137.1,48 139.2,48 
	139.5,48 139.4,47.7 "/>
<polygon class="st0" points="141.1,31 140.9,31 140.9,31.2 140.9,47.8 140.9,48 141.1,48 150,48 150.2,48 150.2,47.8 150.2,45.9 
	150.2,45.7 150,45.7 143.4,45.7 143.4,39.8 149.8,39.8 150,39.8 150,39.6 150,37.7 150,37.5 149.8,37.5 143.4,37.5 143.4,33.3 
	150,33.3 150.2,33.3 150.2,33.1 150.2,31.2 150.2,31 150,31 "/>
<path class="st0" d="M157.5,40.7c0.6-0.1,1.2-0.4,1.8-0.8c0.6-0.4,1.2-1,1.5-1.8c0.4-0.7,0.5-1.5,0.5-2.4c0-1.6-0.7-3-2-3.9
	c-0.6-0.4-1.2-0.6-1.9-0.8c-0.8-0.1-1.6-0.2-2.4-0.2h-3.2v17h2.5v-7h0.5l4.9,6.9l0.1,0.1h3l-0.2-0.3L157.5,40.7z M154.3,33.2h0.5
	c0.9,0,1.7,0.1,2.5,0.4c1,0.3,1.7,1.3,1.6,2.3c0,0.5-0.1,1-0.3,1.5c-0.2,0.4-0.5,0.7-0.9,0.9c-0.5,0.2-1,0.4-1.5,0.5
	c-0.7,0.1-1.3,0.1-2,0.1L154.3,33.2z"/>
<path class="st0" d="M174.2,30.9c-0.8-0.2-1.6-0.3-2.4-0.3c-0.9,0-1.8,0.2-2.6,0.4c-1,0.3-2,0.8-2.8,1.4c-1,0.7-1.8,1.6-2.4,2.7
	c-0.7,1.3-1.1,2.6-1.1,4.1c0,3.7,2.2,7,5.5,8.4c1.1,0.4,2.2,0.7,3.4,0.7c1.6,0,3.1-0.4,4.5-1.2l0.1-0.1v-3l-0.4,0.3
	c-1.2,1-2.7,1.6-4.3,1.6c-0.8,0-1.6-0.2-2.4-0.5c-0.8-0.3-1.4-0.8-2-1.4c-0.6-0.6-1.1-1.4-1.4-2.2c-0.3-0.9-0.5-1.8-0.5-2.7
	c0-0.8,0.2-1.6,0.5-2.3c0.7-1.5,1.9-2.8,3.4-3.5c0.8-0.4,1.6-0.5,2.4-0.5c0.8,0,1.5,0.1,2.2,0.4c0.8,0.3,1.4,0.7,2,1.2l0.4,0.3v-3
	l-0.1-0.1C175.6,31.3,174.9,31.1,174.2,30.9z"/>
<polygon class="st0" points="178.4,31 178.2,31 178.2,31.2 178.2,47.8 178.2,48 178.4,48 180.5,48 180.7,48 180.7,47.8 180.7,31.2 
	180.7,31 180.5,31 "/>
<path class="st0" d="M190.5,30.3l-0.2-0.4l-0.2,0.4l-7.9,17.3L182,48h2.7l0.1-0.1l1.8-4h7.3l1.8,4l0.1,0.1h2.7l-0.1-0.3L190.5,30.3z
	 M192.9,41.5h-5.2l2.6-6L192.9,41.5z"/>
<polygon class="st0" points="202.5,45.7 202.5,31.2 202.5,31 202.2,31 200.2,31 199.9,31 199.9,31.2 199.9,47.8 199.9,48 200.2,48 
	207.3,48 207.5,48 207.5,47.8 207.5,45.9 207.5,45.7 207.3,45.7 "/>
<path class="st0" d="M224.2,41c-0.3-0.6-0.8-1.2-1.3-1.6c-0.4-0.3-0.8-0.5-1.2-0.6c1.1-0.9,1.6-2.2,1.5-3.6c0-1.4-0.8-2.7-2-3.4
	c-1.3-0.6-2.8-0.9-4.2-0.9h-2.3V48h4c1,0,2-0.2,3-0.5c0.9-0.3,1.6-0.9,2.2-1.6c0.6-0.8,0.8-1.7,0.8-2.6
	C224.7,42.5,224.5,41.7,224.2,41z M220,37.6c-0.6,0.5-1.4,0.7-2.2,0.6h-0.7v-5h0.6c0.7,0,1.4,0.1,2,0.4c0.4,0.2,0.7,0.5,0.8,0.9
	c0.1,0.4,0.2,0.8,0.2,1.2C220.9,36.5,220.6,37.2,220,37.6L220,37.6z M217.2,40.4h1.3c0.6,0,1.3,0.1,1.9,0.3c0.5,0.2,1,0.5,1.4,0.9
	c0.4,0.5,0.5,1.1,0.5,1.6c-0.1,1.7-1.3,2.5-3.6,2.5h-1.4V40.4z"/>
<path class="st0" d="M233.2,30.3l-0.2-0.4l-0.2,0.4l-7.9,17.3l-0.1,0.3h2.7l0.1-0.1l1.8-4h7.3l1.8,4l0.1,0.1h2.7l-0.1-0.3
	L233.2,30.3z M235.6,41.5h-5.2l2.6-6L235.6,41.5z"/>
<polygon class="st0" points="255.1,31 254.9,31 254.9,31.2 254.9,42.9 242.8,30.2 242.4,29.8 242.4,30.4 242.4,47.8 242.4,48 
	242.6,48 244.7,48 244.9,48 244.9,47.8 244.9,35.9 257.1,48.6 257.4,49 257.4,48.5 257.4,31.2 257.4,31 257.2,31 "/>
<polygon class="st0" points="271.8,47.6 264.4,38.6 271.7,31.3 272.1,31 271.5,31 268.8,31 268.7,31 268.7,31 262,37.8 262,31.2 
	262,31 261.8,31 259.7,31 259.5,31 259.5,31.2 259.5,47.8 259.5,48 259.7,48 261.8,48 262,48 262,47.8 262,41 262.6,40.3 
	268.7,47.9 268.8,48 268.9,48 271.7,48 272.1,48 "/>
</svg>
